# xmcd
#
# Track frame offsets:
#	150
#	14817
#	28170
#	41092
#	55987
#	71535
#	82592
#	98555
#	114387
#	125072
#	135932
#	147617
#	157042
#	168375
#	181112
#	194537
#	205995
#	219157
#	229912
#	242827
#	256260
#	271170
#	283307
#	295480
#	309085
#	321765
#	336087
#	346532
#
# Disc length: 4791 seconds
#
# Revision: 0
# Processed by: cddbd v1.4PL0 Copyright (c) Steve Scherf et al.
# Submitted via: gmmusic 1.1.91
#
DISCID=9f12b51c
DTITLE=Betty Harris - Soul Perfection Plus
DYEAR=1998
DGENRE=Soul
TTITLE0=Cry To Me
TTITLE1=I'll Be A Liar
TTITLE2=His Kiss
TTITLE3=It's Dark Outside
TTITLE4=Mo Jo Hannah
TTITLE5=Now Is The Hour
TTITLE6=Everybody's Love A.K.A. Just Like Mine(Previously Unissued)
TTITLE7=Why Don't You Tell Him(Take 37)(Previously Unreleased)
TTITLE8=I'm Evil Tonight
TTITLE9=What A Sad Feeling
TTITLE10=Sometime
TTITLE11=I Don't Wanna Hear It
TTITLE12=12 Red Roses
TTITLE13=What'd I Do Wrong
TTITLE14=Lonely Hearts
TTITLE15=Bad Luck
TTITLE16=Nearer To You
TTITLE17=I'm Gonna Git Ya
TTITLE18=Can't Last Much Longer
TTITLE19=Love Lots Of Lovin'(With Lee Dorsey)
TTITLE20=Take Care Of Our Love(With Lee Dorsey)
TTITLE21=Mean Man
TTITLE22=Hook, Line and Sinker
TTITLE23=Show It
TTITLE24=Trouble With My Lover
TTITLE25=Ride Your Pony
TTITLE26=All I Want Is You
TTITLE27=There's A Break In The Road
EXTD=Complete Jubilee.Sansu. SSS International Masters 1963-1969
EXTT0=
EXTT1=
EXTT2=
EXTT3=
EXTT4=
EXTT5=
EXTT6=
EXTT7=
EXTT8=
EXTT9=
EXTT10=
EXTT11=
EXTT12=
EXTT13=
EXTT14=
EXTT15=
EXTT16=
EXTT17=
EXTT18=
EXTT19=
EXTT20=
EXTT21=
EXTT22=
EXTT23=
EXTT24=
EXTT25=
EXTT26=
EXTT27=
PLAYORDER=
